<svg data-v-423bf9ae="" xmlns="http://www.w3.org/2000/svg" viewBox="0 0 385 90" class="iconLeft"><!----><!----><!----><g data-v-423bf9ae="" id="d5f19143-e0a5-45dc-96ea-76d234fc490b" fill="black" transform="matrix(4.441154624981523,0,0,4.441154624981523,91.19450176950582,9.093265231064507)"><path d="M3.81 2.73L3.81 2.73Q3.10 2.34 2.42 2.67L2.42 2.67Q1.80 2.99 1.63 4.48L1.63 4.48L1.63 5.23L3.40 5.23L3.40 6.06L1.62 6.06L1.62 12.10L0.65 12.10L0.65 4.31Q0.67 3.40 1.03 2.81L1.03 2.81Q1.57 1.67 2.78 1.63L2.78 1.63Q3.39 1.49 4.12 1.93L4.12 1.93Q4.00 2.21 3.81 2.73ZM9.18 4.22L9.18 4.22Q10.91 4.22 12.05 5.47L12.05 5.47Q13.08 6.62 13.08 8.18L13.08 8.18Q13.08 9.75 11.99 10.92Q10.90 12.09 9.18 12.09L9.18 12.09Q7.46 12.09 6.37 10.92Q5.28 9.75 5.28 8.18L5.28 8.18Q5.28 6.62 6.31 5.48L6.31 5.48Q7.45 4.22 9.18 4.22ZM9.18 5.16L9.18 5.16Q7.98 5.16 7.12 6.05Q6.26 6.94 6.26 8.20L6.26 8.20Q6.26 9.01 6.65 9.72Q7.05 10.42 7.72 10.80Q8.39 11.18 9.18 11.18L9.18 11.18Q9.99 11.18 10.65 10.80Q11.32 10.42 11.71 9.72Q12.10 9.01 12.10 8.20L12.10 8.20Q12.10 6.94 11.24 6.05Q10.38 5.16 9.18 5.16ZM18.40 4.22L18.40 4.22Q20.13 4.22 21.27 5.47L21.27 5.47Q22.31 6.62 22.31 8.18L22.31 8.18Q22.31 9.75 21.21 10.92Q20.12 12.09 18.40 12.09L18.40 12.09Q16.68 12.09 15.59 10.92Q14.50 9.75 14.50 8.18L14.50 8.18Q14.50 6.62 15.53 5.48L15.53 5.48Q16.67 4.22 18.40 4.22ZM18.40 5.16L18.40 5.16Q17.21 5.16 16.34 6.05Q15.48 6.94 15.48 8.20L15.48 8.20Q15.48 9.01 15.88 9.72Q16.27 10.42 16.94 10.80Q17.61 11.18 18.40 11.18L18.40 11.18Q19.21 11.18 19.88 10.80Q20.54 10.42 20.93 9.72Q21.32 9.01 21.32 8.20L21.32 8.20Q21.32 6.94 20.46 6.05Q19.60 5.16 18.40 5.16ZM26.78 11.03L26.78 11.03Q26.07 11.41 25.39 11.09L25.39 11.09Q24.55 10.45 24.60 9.28L24.60 9.28L24.60 6.10L26.37 6.10L26.37 5.28L24.59 5.28L24.59 1.65L23.62 1.65L23.62 9.44Q23.60 10.26 23.99 10.94L23.99 10.94Q24.64 12.03 25.74 12.09L25.74 12.09Q26.33 12.11 27.08 11.83L27.08 11.83Q26.97 11.54 26.78 11.03ZM32.85 1.33L32.85 1.33Q33.18 1.33 33.41 1.56Q33.64 1.79 33.64 2.12L33.64 2.12Q33.64 2.45 33.41 2.68Q33.18 2.92 32.85 2.92L32.85 2.92Q32.52 2.92 32.29 2.68Q32.05 2.45 32.05 2.12L32.05 2.12Q32.05 1.79 32.29 1.56Q32.52 1.33 32.85 1.33ZM32.38 10.55L32.38 4.41L33.35 4.41L33.35 10.83Q33.12 13.84 32.07 14.84L32.07 14.84Q31.66 14.22 31.49 13.99L31.49 13.99Q32.30 12.72 32.38 10.55L32.38 10.55ZM41.56 9.42L41.56 9.42L42.36 9.85Q41.97 10.64 41.45 11.12Q40.92 11.59 40.26 11.84Q39.61 12.09 38.78 12.09L38.78 12.09Q36.95 12.09 35.92 10.89Q34.88 9.69 34.88 8.18L34.88 8.18Q34.88 6.75 35.76 5.64L35.76 5.64Q36.87 4.22 38.73 4.22L38.73 4.22Q40.64 4.22 41.79 5.67L41.79 5.67Q42.60 6.70 42.61 8.23L42.61 8.23L35.88 8.23Q35.90 9.54 36.71 10.38Q37.52 11.22 38.70 11.22L38.70 11.22Q39.27 11.22 39.81 11.02Q40.35 10.81 40.73 10.49Q41.11 10.16 41.56 9.42ZM35.98 7.40L41.56 7.40Q41.36 6.63 41.00 6.17Q40.63 5.71 40.02 5.42Q39.41 5.14 38.74 5.14L38.74 5.14Q37.64 5.14 36.85 5.85L36.85 5.85Q36.27 6.37 35.98 7.40L35.98 7.40ZM46.59 12.10L43.39 4.60L44.39 4.60L46.68 10.05L49.09 4.60L49.26 4.60L51.65 10.05L53.99 4.60L55.00 4.60L51.75 12.10L51.56 12.10L49.18 6.73L46.77 12.10L46.59 12.10ZM62.44 9.42L62.44 9.42L63.25 9.85Q62.86 10.64 62.33 11.12Q61.80 11.59 61.15 11.84Q60.49 12.09 59.66 12.09L59.66 12.09Q57.83 12.09 56.80 10.89Q55.77 9.69 55.77 8.18L55.77 8.18Q55.77 6.75 56.64 5.64L56.64 5.64Q57.75 4.22 59.62 4.22L59.62 4.22Q61.52 4.22 62.67 5.67L62.67 5.67Q63.49 6.70 63.49 8.23L63.49 8.23L56.76 8.23Q56.79 9.54 57.59 10.38Q58.40 11.22 59.58 11.22L59.58 11.22Q60.16 11.22 60.70 11.02Q61.24 10.81 61.62 10.49Q62.00 10.16 62.44 9.42ZM56.86 7.40L62.44 7.40Q62.25 6.63 61.88 6.17Q61.51 5.71 60.90 5.42Q60.29 5.14 59.62 5.14L59.62 5.14Q58.52 5.14 57.73 5.85L57.73 5.85Q57.16 6.37 56.86 7.40L56.86 7.40ZM65.14 12.09L65.14 1.69L66.11 1.69L66.11 12.09L65.14 12.09Z"></path></g><!----><g data-v-423bf9ae="" id="93d46aff-43b6-4771-a9fb-11448a9a5e31" transform="matrix(2.8125,0,0,2.8125,-7.170000076293945,0)" stroke="none" fill="black"><path d="M2.83 18.247l26.34-9.124L2.83 0zM29.17 32V13.753L2.83 22.877z"></path></g><!----></svg>